<svg width="9" height="14" viewBox="0 0 9 14" fill="none" xmlns="http://www.w3.org/2000/svg">
<path d="M4.5 0.0170898C2.01875 0.0170898 0 1.96107 0 4.35043C0 5.06772 0.186231 5.77891 0.540263 6.40971L4.25392 12.8774C4.30335 12.9637 4.39756 13.0171 4.5 13.0171C4.60244 13.0171 4.69665 12.9637 4.74608 12.8774L8.46111 6.40758C8.81377 5.77891 9 5.06769 9 4.35041C9 1.96107 6.98125 0.0170898 4.5 0.0170898ZM4.5 6.51709C3.25937 6.51709 2.25001 5.54511 2.25001 4.35043C2.25001 3.15575 3.25937 2.18377 4.5 2.18377C5.74063 2.18377 6.74999 3.15575 6.74999 4.35043C6.74999 5.54511 5.74063 6.51709 4.5 6.51709Z" fill="#5315B5"/>
</svg>
