<svg width="11" height="12" viewBox="0 0 11 12" fill="none" xmlns="http://www.w3.org/2000/svg">
<path d="M10.1854 7.6463C9.56381 7.6463 8.9535 7.54909 8.37516 7.35796C8.09176 7.2613 7.74338 7.34998 7.57042 7.52762L6.42889 8.38936C5.10503 7.68268 4.28956 6.86748 3.59254 5.55356L4.42892 4.44177C4.64622 4.22476 4.72416 3.90776 4.63078 3.61033C4.43883 3.02895 4.34133 2.41893 4.34133 1.7971C4.34135 1.34788 3.97589 0.982422 3.5267 0.982422H1.66226C1.21307 0.982422 0.84761 1.34788 0.84761 1.79707C0.84761 6.94597 5.03648 11.1348 10.1854 11.1348C10.6346 11.1348 11 10.7694 11 10.3202V8.46093C11 8.01176 10.6345 7.6463 10.1854 7.6463Z" fill="#5315B5"/>
</svg>
