<svg width="182" height="22" viewBox="0 0 182 22" fill="none" xmlns="http://www.w3.org/2000/svg">
<rect x="0.42379" y="0.302979" width="84.8141" height="21.0223" rx="10.3966" fill="#5315B5"/>
<path d="M24.0383 14.9276H25.2677V11.4248H29.1184V14.9276H30.3479V7.27253H29.1184V10.3229H25.2677V7.27253H24.0383V14.9276ZM36.6697 11.4828C36.6697 9.95179 35.7418 9.1051 34.3384 9.1051C33.3525 9.1051 32.5058 9.49945 31.9375 10.3229L32.645 11.042C33.1205 10.4737 33.5845 10.1954 34.2224 10.1954C34.9995 10.1954 35.4402 10.6245 35.4402 11.4132V11.7844H33.828C32.5406 11.7844 31.7287 12.4223 31.7287 13.4081C31.7287 14.394 32.5174 15.0551 33.7121 15.0551C34.4892 15.0551 35.1155 14.7884 35.533 14.2896V14.9276H36.6697V11.4828ZM35.4402 12.7702C35.4402 13.5473 34.7907 14.1157 33.9672 14.1157C33.3757 14.1157 32.9698 13.8373 32.9698 13.3618C32.9698 12.8978 33.3293 12.6658 33.9788 12.6658H35.4402V12.7702ZM46.9127 11.3668C46.9127 10.0098 46.1124 9.1051 44.8018 9.1051C44.0015 9.1051 43.294 9.45305 42.8764 9.99818C42.5401 9.44145 41.9369 9.1051 41.1483 9.1051C40.4639 9.1051 39.9072 9.34867 39.5013 9.76621V9.23268H38.3646V14.9276H39.5825V11.5408C39.5825 10.7521 40.0928 10.2186 40.8351 10.2186C41.5658 10.2186 42.0297 10.7521 42.0297 11.5408V14.9276H43.2476V11.4828C43.2476 10.7521 43.7579 10.2186 44.5002 10.2186C45.2309 10.2186 45.6833 10.7405 45.6833 11.5408V14.9276H46.9127V11.3668ZM54.5192 12.0859C54.5192 10.3925 53.3361 9.1051 51.7239 9.1051C50.9352 9.1051 50.2509 9.40666 49.8218 9.92859V6.22867H48.6039V14.9276H49.7406V14.1389C50.1697 14.7304 50.9004 15.0551 51.7355 15.0551C53.3245 15.0551 54.5192 13.7677 54.5192 12.0859ZM53.2665 12.0743C53.2665 13.1646 52.5126 13.9417 51.5267 13.9417C50.6337 13.9417 49.8102 13.327 49.8102 12.0859C49.8102 10.8333 50.6337 10.2186 51.5267 10.2186C52.501 10.2186 53.2665 10.9841 53.2665 12.0743ZM55.863 12.5383C55.863 14.0693 56.93 15.0551 58.3566 15.0551C59.7485 15.0551 60.8271 14.0693 60.8271 12.5383V9.23268H59.6093V12.631C59.6093 13.4197 59.0641 13.9301 58.3566 13.9301C57.6143 13.9301 57.0692 13.4197 57.0692 12.631V9.23268H55.863V12.5383ZM65.7949 9.23268C65.6557 9.19789 65.5049 9.17469 65.331 9.17469C64.6815 9.17469 64.0783 9.46465 63.6724 9.97499V9.23268H62.5357V14.9276H63.7536V11.8887C63.7536 10.8797 64.4611 10.3113 65.4238 10.3113H65.7949V9.23268ZM71.2373 9.23268V10.0446C70.8198 9.45305 70.0891 9.1051 69.2192 9.1051C67.6418 9.1051 66.4471 10.2997 66.4471 11.9583C66.4471 13.6169 67.6302 14.8116 69.2192 14.8116C70.0079 14.8116 70.7154 14.5216 71.1445 13.9997V14.4056C71.1445 15.4727 70.4718 16.0294 69.4396 16.0294C68.6625 16.0294 68.0825 15.7278 67.4446 15.2175L66.7719 16.0642C67.4562 16.7021 68.3841 17.1429 69.5092 17.1429C71.2373 17.1429 72.3624 16.1338 72.3624 14.336V9.23268H71.2373ZM71.1561 11.9467C71.1561 12.5267 70.9822 12.9674 70.6458 13.2806C70.3094 13.5937 69.9151 13.7445 69.4396 13.7445C68.9408 13.7445 68.5349 13.5821 68.1985 13.2574C67.8622 12.921 67.6998 12.4919 67.6998 11.9583C67.6998 11.4364 67.8622 11.0073 68.1985 10.6825C68.5349 10.3577 68.9408 10.1954 69.4396 10.1954C70.379 10.1954 71.1561 10.7869 71.1561 11.9467Z" fill="white"/>
<path d="M14.4642 10.0229H14.4177V10.0245C14.2449 10.0161 14.0773 9.96094 13.933 9.86451C13.7758 9.75947 13.6533 9.61016 13.5809 9.43547C13.5086 9.26078 13.4896 9.06855 13.5265 8.8831C13.5634 8.69766 13.6544 8.52731 13.7881 8.39361C13.9218 8.25991 14.0922 8.16885 14.2776 8.13197C14.4631 8.09508 14.6553 8.11401 14.83 8.18637C15.0047 8.25873 15.154 8.38126 15.2591 8.53848C15.3641 8.6957 15.4202 8.88053 15.4202 9.06961H15.4667L15.4202 9.06949C15.4195 9.3226 15.3185 9.56511 15.1393 9.74384C14.96 9.92257 14.7173 10.0229 14.4642 10.0229ZM14.4642 7.48308C14.1504 7.48308 13.8436 7.57613 13.5827 7.75046C13.3218 7.92479 13.1185 8.17257 12.9984 8.46248C12.8783 8.75238 12.8469 9.07137 12.9081 9.37913C12.9693 9.68689 13.1204 9.96958 13.3423 10.1915C13.5642 10.4133 13.8469 10.5644 14.1546 10.6257C14.4624 10.6869 14.7814 10.6555 15.0713 10.5354C15.3612 10.4153 15.609 10.2119 15.7833 9.95104C15.9576 9.69014 16.0507 9.3834 16.0507 9.06961C16.0507 8.64884 15.8835 8.2453 15.586 7.94777C15.2885 7.65023 14.8849 7.48308 14.4642 7.48308Z" fill="white" stroke="white" stroke-width="0.0929774"/>
<path d="M11.2509 9.41368C11.251 10.685 11.9641 11.7472 12.4791 12.5116L12.5731 12.6513L12.5734 12.6517C13.0878 13.3972 13.6395 14.116 14.2266 14.8056L14.2266 14.8057L14.4309 15.0449L14.4662 15.0863L14.5016 15.0449L14.7058 14.8057L14.7059 14.8056C15.2929 14.116 15.8446 13.3971 16.359 12.6517L16.359 12.6518L16.3595 12.651L16.4534 12.5088L16.4536 12.5085L16.4589 12.5005C16.9707 11.7369 17.6788 10.6804 17.6788 9.41356H17.6792L17.6784 9.40779C17.6757 9.38579 17.6734 9.36717 17.6734 9.34906V9.30384L17.6282 9.30259C17.4501 9.29763 17.2734 9.26848 17.1031 9.21594L17.0429 9.19737V9.26036V9.41356C17.0429 10.4883 16.4018 11.4469 15.9246 12.1587L15.828 12.3009L15.8278 12.3012C15.383 12.9684 14.7981 13.7135 14.4615 14.1092C14.1353 13.7126 13.5388 12.9685 13.0945 12.3022L13.0037 12.15L13.0038 12.15L13.0024 12.1479L13.0004 12.1449C12.5233 11.4334 11.8815 10.4761 11.8815 9.40289C11.8831 8.95899 11.9992 8.52302 12.2187 8.13715C12.4381 7.75126 12.7535 7.42853 13.1342 7.20021C13.5149 6.97189 13.9481 6.84569 14.3919 6.83382C14.8357 6.82196 15.275 6.92483 15.6674 7.13249L15.7275 7.1643L15.7353 7.09675C15.7562 6.91624 15.8021 6.73952 15.8718 6.57169L15.8887 6.53111L15.8491 6.512C15.3593 6.27546 14.8174 6.16747 14.2744 6.19819C13.7314 6.22891 13.2052 6.39733 12.7452 6.6876C12.2853 6.97786 11.9067 7.38042 11.6453 7.85736C11.3839 8.33426 11.2482 8.86984 11.2509 9.41368ZM11.2509 9.41368C11.2509 9.41364 11.2509 9.4136 11.2509 9.41356H11.2974L11.2509 9.4138C11.2509 9.41376 11.2509 9.41372 11.2509 9.41368Z" fill="white" stroke="white" stroke-width="0.0929774"/>
<path d="M17.6886 8.7263C18.4565 8.7263 19.079 8.10383 19.079 7.33597C19.079 6.56811 18.4565 5.94564 17.6886 5.94564C16.9208 5.94564 16.2983 6.56811 16.2983 7.33597C16.2983 8.10383 16.9208 8.7263 17.6886 8.7263Z" fill="white" stroke="white" stroke-width="0.0929774"/>
<rect x="94.2283" y="0.594435" width="87.1308" height="20.4394" rx="10.1051" stroke="#5315B5" stroke-width="0.582914"/>
<path d="M106.34 6.4382L107.335 9.39581H110.553L107.949 11.2237L108.944 14.1813L106.34 12.3534L103.737 14.1813L104.731 11.2237L102.128 9.39581H105.346L106.34 6.4382Z" fill="#5315B5"/>
<path d="M116.199 6.43826L117.193 9.39587H120.412L117.808 11.2238L118.802 14.1814L116.199 12.3535L113.595 14.1814L114.59 11.2238L111.986 9.39587H115.204L116.199 6.43826Z" fill="#5315B5"/>
<path d="M126.055 6.43823L127.049 9.39584H130.267L127.664 11.2237L128.658 14.1814L126.055 12.3535L123.451 14.1814L124.446 11.2237L121.842 9.39584H125.06L126.055 6.43823Z" fill="#5315B5"/>
<path d="M135.913 6.43826L136.908 9.39587H140.126L137.522 11.2238L138.517 14.1814L135.913 12.3535L133.31 14.1814L134.304 11.2238L131.7 9.39587H134.919L135.913 6.43826Z" fill="#5315B5"/>
<path d="M145.771 6.8535L146.64 9.43805L146.671 9.52822H146.766H149.565L147.304 11.1155L147.224 11.1723L147.255 11.266L148.121 13.8414L145.847 12.2452L145.771 12.1918L145.695 12.2452L143.422 13.8414L144.288 11.266L144.319 11.1723L144.238 11.1155L141.977 9.52822H144.777H144.872L144.902 9.43805L145.771 6.8535Z" stroke="#5315B5" stroke-width="0.264685"/>
<path d="M162.728 12.5383H161.685V10.1838H160.455V12.5383H158.17L160.339 7.27253H159.075L156.628 13.2574V13.5937H160.455V14.9276H161.685V13.5937H162.728V12.5383ZM163.877 14.162C163.877 14.6724 164.283 15.0551 164.794 15.0551C165.304 15.0551 165.687 14.6724 165.687 14.162C165.687 13.6401 165.304 13.2574 164.794 13.2574C164.283 13.2574 163.877 13.6517 163.877 14.162ZM167.003 11.0305C167.003 13.2922 167.966 15.0551 169.926 15.0551C171.898 15.0551 172.837 13.2922 172.837 11.0305C172.837 9.859 172.594 8.91952 172.095 8.21201C171.608 7.5045 170.889 7.14495 169.926 7.14495C168.963 7.14495 168.244 7.5045 167.746 8.22361C167.247 8.93112 167.003 9.8706 167.003 11.0305ZM171.561 11.042C171.561 12.8514 171.051 13.9301 169.926 13.9301C168.801 13.9301 168.279 12.8514 168.279 11.042C168.279 9.19789 168.824 8.27 169.926 8.27C171.016 8.27 171.561 9.19789 171.561 11.042Z" fill="#5315B5"/>
</svg>
