<svg width="17" height="19" viewBox="0 0 17 19" fill="none" xmlns="http://www.w3.org/2000/svg">
<path d="M9.19162 18.2489C9.43812 18.2489 9.73137 18.2447 10.0714 18.2362C10.4114 18.2277 10.7769 18.1809 11.1679 18.0959C11.5589 18.0109 11.9669 17.8749 12.3919 17.6879C12.8169 17.5009 13.2376 17.2332 13.6541 16.8847C14.0791 16.5277 14.4913 16.073 14.8908 15.5205C15.2903 14.968 15.6601 14.2837 16.0001 13.4677L16.4208 13.6207C16.0723 14.4537 15.6941 15.1592 15.2861 15.7372C14.8866 16.3067 14.4701 16.7827 14.0366 17.1652C13.6116 17.5392 13.1823 17.8324 12.7489 18.0449C12.3154 18.2574 11.8946 18.4104 11.4866 18.5039C11.0786 18.6059 10.6919 18.6654 10.3264 18.6824C9.96937 18.7079 9.65062 18.7207 9.37012 18.7207C9.11512 18.7207 8.78787 18.7079 8.38838 18.6824C7.99738 18.6654 7.56388 18.6144 7.08788 18.5294C6.61189 18.4444 6.11039 18.3169 5.58339 18.1469C5.0649 17.9769 4.55065 17.7474 4.04065 17.4584C3.53065 17.1609 3.04616 16.7954 2.58716 16.362C2.12816 15.92 1.72441 15.3887 1.37592 14.7682C1.02742 14.1392 0.74692 13.4082 0.534421 12.5752C0.330423 11.7422 0.228423 10.786 0.228423 9.70649C0.228423 8.338 0.385672 7.15225 0.70017 6.14926C1.01467 5.13777 1.43117 4.27927 1.94966 3.57377C2.47666 2.85978 3.07591 2.27753 3.7474 1.82703C4.4189 1.36804 5.10739 1.01104 5.81289 0.756041C6.51839 0.492543 7.21538 0.309794 7.90388 0.207794C8.59237 0.105795 9.21287 0.0505453 9.76537 0.0420453H9.94387C10.9979 0.0420453 11.9541 0.186544 12.8126 0.475543C13.6796 0.756041 14.4191 1.13429 15.0311 1.61029C15.6516 2.08628 16.1276 2.63028 16.4591 3.24228C16.7991 3.85427 16.9691 4.48752 16.9691 5.14202C16.9691 5.45651 16.9096 5.74976 16.7906 6.02176C16.6716 6.28526 16.5143 6.51476 16.3188 6.71026C16.1318 6.90576 15.9108 7.05875 15.6558 7.16925C15.4008 7.27975 15.1416 7.335 14.8781 7.335C14.6061 7.3265 14.3298 7.2585 14.0493 7.131C13.7773 7.0035 13.5266 6.82501 13.2971 6.59551C13.0676 6.36601 12.8679 6.08551 12.6979 5.75401C12.5364 5.42251 12.4301 5.05277 12.3791 4.64477L12.2899 4.04552C12.2389 3.66302 12.1709 3.26778 12.0859 2.85978C12.0009 2.44328 11.8691 2.06078 11.6906 1.71229C11.5206 1.36379 11.2954 1.07904 11.0149 0.858041C10.7344 0.628542 10.3774 0.513793 9.94387 0.513793H9.79087C9.43387 0.539292 9.06837 0.628542 8.69437 0.781541C8.32038 0.92604 7.95488 1.15554 7.59788 1.47004C7.24938 1.77604 6.91363 2.17128 6.59064 2.65578C6.27614 3.13178 5.99989 3.70977 5.76189 4.38977C5.52389 5.06127 5.33264 5.84751 5.18814 6.74851C5.05215 7.641 4.98415 8.6525 4.98415 9.78299C4.98415 10.922 5.04365 11.9207 5.16264 12.7792C5.29014 13.6292 5.45589 14.3687 5.65989 14.9977C5.87239 15.6182 6.11464 16.1367 6.38664 16.5532C6.66714 16.9612 6.95613 17.2884 7.25363 17.5349C7.55963 17.7814 7.86563 17.9599 8.17163 18.0704C8.47763 18.1809 8.77087 18.2404 9.05137 18.2489H9.19162Z" fill="#FFB84B"/>
</svg>
