<svg width="123" height="151" viewBox="0 0 123 151" fill="none" xmlns="http://www.w3.org/2000/svg">
<path d="M29.1273 45.3966C8.14791 61.8439 6.59681 90.7985 20.583 112.481C26.5509 121.736 39.1963 127.395 49.4757 129.299C62.6206 131.732 75.3713 128.188 86.1501 120.361C86.229 120.308 86.2816 120.255 86.3342 120.203C86.3867 120.176 86.4393 120.123 86.4919 120.097C96.745 111.873 103.396 102.301 104.527 88.8946C105.736 74.7214 101.977 62.928 93.2747 51.8486C78.1843 32.5456 47.7143 30.8268 29.1273 45.3966ZM101.293 86.3032C100.925 99.2865 94.0108 109.546 84.2573 117.426C64.8027 131.467 41.3521 128.135 24.5528 111.767C20.8722 108.171 18.7165 101.111 17.0865 96.4836C15.0622 90.7985 14.4049 84.7696 14.6152 78.7671C14.9833 67.6612 21.6872 56.3703 29.8108 49.3101C46.9781 34.423 73.6098 36.5913 89.2786 52.5626C98.2172 61.6588 101.635 73.7695 101.293 86.3032Z" fill="white"/>
<path d="M115.674 25.9877C117.908 21.8626 117.567 16.627 113.623 13.7712C109.522 10.7832 104.316 12.0789 101.188 15.5164C96.482 13.4275 91.4081 12.4226 86.1238 13.3481C77.8688 14.776 74.7928 21.228 76.528 27.9444C69.7715 25.8554 62.568 25.0886 55.4172 25.5381C59.2292 20.1174 58.9663 13.5332 52.315 9.14376C47.1621 5.73268 41.4572 5.09806 35.7523 5.89133C34.0172 2.24226 30.7046 -0.560646 26.3405 0.285515C20.6882 1.34322 17.8489 6.04999 18.8742 11.4972C12.8275 14.9347 7.64837 20.4083 7.49063 27.7858C7.3066 37.0671 12.696 39.3676 20.3464 39.3676C9.51496 48.8869 2.60071 61.3413 0.760413 75.8583C0.234614 79.9304 1.28621 84.1348 1.47024 88.2069C1.65427 92.332 2.07491 95.796 3.25796 99.7888C5.25599 106.664 9.51496 113.592 13.5373 119.462L13.5636 119.488C9.9356 124.565 2.65329 134.138 9.25206 138.844C11.7759 140.642 15.2725 138.051 17.4545 136.888C20.5567 135.248 23.6589 133.529 26.6297 131.652C33.728 136.147 41.9567 139.082 49.6334 139.955C57.8621 140.907 65.9857 140.246 73.6624 138.078C76.0022 140.828 78.5523 143.419 81.1024 145.984C83.1268 148.02 85.2299 150.929 88.3847 150.691C96.8501 150.03 91.9076 135.83 90.1462 130.674C90.8823 130.198 91.5921 129.722 92.3019 129.219C117.514 111.529 120.485 77.392 106.209 52.06C106.341 52.1129 106.472 52.1393 106.604 52.1658C106.656 52.1922 106.735 52.1922 106.788 52.2187C113.86 54.2283 119.486 53.4615 121.931 44.7883C123.955 37.6488 120.458 31.0911 115.674 25.9877ZM111.231 16.4155C113.912 17.6847 113.991 20.8843 113.018 23.3699C112.545 22.9468 112.072 22.5237 111.599 22.1271C109.364 20.3025 106.998 18.6102 104.5 17.1823C106.393 15.5693 108.602 15.1727 111.231 16.4155ZM95.115 16.9972C100.899 18.2664 106.393 22.3915 110.863 26.067C114.938 29.4252 118.644 34.9781 118.934 40.2931C118.986 41.3772 118.855 42.8844 118.487 44.3917C116.199 38.9181 107.787 32.3074 105.526 30.5358C102.476 28.1559 90.6194 18.6631 83.2582 18.478C86.4656 16.6006 91.1452 16.1246 95.115 16.9972ZM83.6788 23.5285C82.0226 22.8939 80.7344 22.7352 79.7091 22.9203C79.7879 22.8146 79.8668 22.7352 79.9194 22.603C82.3118 16.0188 98.8744 28.156 101.503 30.0863C103.528 31.5935 122.693 46.2426 114.964 49.0984C114.622 49.2307 114.438 49.4686 114.333 49.7331C114.543 44.2859 107.235 39.0238 103.738 36.0623C97.7177 31.0382 90.9874 26.305 83.6788 23.5285ZM80.8132 29.4516C78.8152 23.7136 89.4889 30.2978 90.8034 31.0911C91.5658 31.5406 92.3019 32.043 93.0381 32.519C92.3545 33.3122 91.671 34.1055 91.0137 34.9252C87.8326 32.7041 84.415 30.8795 80.8132 29.4516ZM94.8258 35.8243C95.1938 35.4012 95.5619 34.9517 95.9299 34.5286C96.5083 34.9517 97.0604 35.3483 97.6125 35.7714C96.8501 36.644 96.114 37.5166 95.4042 38.4157C94.8783 37.9397 94.3263 37.4902 93.8005 37.0406C94.1422 36.6176 94.484 36.2209 94.8258 35.8243ZM99.0847 39.4469C99.5054 38.9445 99.9523 38.4421 100.399 37.9397C101.083 38.495 101.766 39.0503 102.45 39.6056C105.315 42.0118 108.181 44.6825 110.179 47.8556C112.177 51.0023 105.447 48.1201 103.16 47.1681C101.582 44.8676 99.8209 42.7522 97.928 40.8219C98.3223 40.346 98.7167 39.8964 99.0847 39.4469ZM54.0238 18.1607C54.0764 18.3193 54.1553 18.4515 54.2341 18.5838C54.2341 18.7424 54.2604 18.9011 54.2341 19.0597C53.7609 18.8746 53.1825 18.7424 52.499 18.6895C44.6383 18.0285 36.2518 21.3073 29.0747 24.1102C23.8955 26.1463 16.5081 28.7906 13.6162 33.9998C13.5899 34.0791 13.5636 34.132 13.511 34.1848C13.4847 34.132 13.4847 34.1055 13.4584 34.0526C8.41078 27.3627 27.839 20.8314 30.9675 19.6679C33.9909 18.5309 37.1457 17.6583 40.2216 16.6799C42.8769 15.8073 52.7882 13.9563 54.0238 18.1607ZM25.21 35.5599C22.4759 35.7714 14.6152 36.5382 19.2948 33.0214C22.397 30.6944 26.1828 29.1079 29.7319 27.6271C30.3103 29.055 30.8361 30.5093 31.4408 31.9372C29.285 33.0214 27.2081 34.2113 25.21 35.5599ZM34.5956 30.4564C34.0172 29.1079 33.5177 27.7329 32.9656 26.3579C33.6228 26.1199 34.2801 25.9083 34.9373 25.6704C35.5157 26.9925 36.1204 28.2882 36.725 29.5838C35.9889 29.8747 35.2791 30.1656 34.5956 30.4564ZM40.0113 28.4204C39.4329 27.1511 38.8545 25.8819 38.2761 24.6126C39.4855 24.2425 40.7211 23.8987 41.9304 23.5549C43.6919 23.079 54.944 20.091 51.0793 25.2737C50.9479 25.4059 50.8427 25.5117 50.7113 25.6439C50.5798 25.7761 50.501 25.8819 50.4221 26.0141C46.8729 26.5165 43.4027 27.3362 40.0113 28.4204ZM27.6024 3.6966C29.7319 3.59083 31.2304 4.86007 32.2032 6.52595C29.2061 7.21346 26.2616 8.21828 23.4223 9.32886C23.0017 9.48752 22.5811 9.67262 22.1604 9.85771C21.9764 6.5524 23.9481 3.85526 27.6024 3.6966ZM11.697 24.1896C13.0378 18.8746 18.3747 15.5429 22.8965 13.3481C27.9442 10.889 33.8331 9.32886 39.4066 8.95867C43.9548 8.6678 49.5019 10.7039 52.3675 14.0356C51.2897 13.7712 50.054 13.7183 48.7658 13.6654C41.8253 13.3217 35.2002 15.7808 28.7855 18.2136C25.1049 19.615 14.1946 23.6343 11.1712 28.9492C11.0924 27.4156 11.3027 25.7497 11.697 24.1896ZM13.3533 135.063C11.5656 135.989 9.46238 134.852 10.2774 132.604C10.8557 131.017 11.6707 129.51 12.4594 128.029C13.4847 126.099 14.6152 124.248 15.8245 122.424C17.2179 124.063 18.7427 125.623 20.399 127.051C19.9784 127.368 19.5577 127.739 19.1634 128.029C17.8226 129.034 16.3766 129.933 15.2987 131.229C15.1673 131.388 15.2462 131.652 15.4828 131.652C17.2179 131.626 18.7427 130.7 20.1624 129.748C20.7408 129.378 21.4769 128.928 22.0815 128.4C22.5285 128.77 23.0017 129.114 23.4749 129.457C20.1624 131.493 16.771 133.318 13.3533 135.063ZM88.8317 139.4C89.1734 141.039 89.4363 142.705 89.5941 144.397C89.8307 146.724 87.3857 147.2 85.9924 145.852C82.9953 143.022 80.0771 140.061 77.343 136.941C78.1054 136.676 78.8415 136.385 79.5776 136.094C79.9457 136.755 80.4452 137.364 80.9184 137.945C82.0226 139.32 83.3634 140.431 84.7567 141.489C84.967 141.647 85.2037 141.356 85.0985 141.145C84.2835 139.611 83.5737 138.078 82.5484 136.676C82.2066 136.2 81.8648 135.724 81.4705 135.301C83.3634 134.481 85.2037 133.556 87.0177 132.551C87.7012 134.825 88.3322 137.099 88.8317 139.4ZM90.5405 126.178C72.8211 139.717 46.2157 140.352 27.7865 128.109C27.6813 128.003 27.5499 127.924 27.4184 127.844C22.7914 124.698 18.6639 120.758 15.3776 115.972C11.9073 110.921 8.54223 104.628 6.62307 98.8633C4.49358 92.4906 4.59874 85.1132 4.15181 78.4232C3.17909 63.5361 14.1946 48.6489 25.1838 39.8435C47.2936 23.6872 79.0255 25.0622 97.7702 45.8989C106.867 56.0264 111.73 72.3943 111.756 85.8007C111.756 101.481 102.686 116.924 90.5405 126.178Z" fill="white"/>
<path d="M74.8979 63.6152C69.6925 67.7932 64.5659 72.0504 59.492 76.3341C59.0976 76.2548 58.7033 76.2283 58.3089 76.2019C56.7841 73.7956 55.2593 71.3893 53.7608 68.9831C52.7881 67.3965 51.8153 65.096 50.422 63.8268C48.2399 61.87 44.9799 59.8604 42.3247 61.87C39.906 63.6946 40.721 67.3436 41.8252 69.7763C42.5613 71.3893 44.1124 72.7644 45.2691 74.0865C47.346 76.4927 49.4492 78.8726 51.4998 81.3053C51.1318 82.9183 51.3684 84.6899 52.236 86.3029C53.9974 89.6082 58.0986 90.1635 61.2271 88.6827C63.4881 87.625 64.4345 85.4832 64.4871 83.262C69.8765 79.7187 75.2397 76.0961 80.5765 72.4206C83.337 70.5167 88.0691 66.2595 85.3613 62.584C82.6534 59.0142 77.6846 61.3676 74.8979 63.6152ZM45.0588 68.4542C44.7696 68.1105 43.9546 65.0167 44.0598 64.9374C46.9517 62.7691 52.4463 72.8701 54.7335 76.9952C54.4969 77.1274 54.2603 77.2596 54.05 77.3918C53.9711 77.4447 53.8922 77.4976 53.8396 77.5769C53.7871 77.6033 53.7345 77.6298 53.7082 77.6827C53.5767 77.7884 53.4716 77.9206 53.3401 78.0529C51.2632 75.6201 49.1863 73.2139 47.0831 70.834C46.3733 70.0408 45.7161 69.2475 45.0588 68.4542ZM59.4131 85.6419C57.7568 86.6467 55.864 85.6947 55.049 84.1611C54.3129 82.7596 54.9438 81.3317 55.9954 80.3534C57.4939 79.4279 59.4394 79.4014 60.5173 81.0144C61.5689 82.6539 61.0431 84.637 59.4131 85.6419ZM63.6984 79.5865C63.4618 79.0312 63.12 78.5288 62.7519 78.1057C67.2475 74.0865 80.6291 62.1345 82.2854 64.3556C84.2834 67.1321 68.9038 76.4134 63.6984 79.5865Z" fill="white"/>
<path d="M46.6626 46.8508C47.2147 49.0455 50.6061 48.12 50.054 45.9253C49.87 45.2378 49.7123 44.5503 49.5282 43.8364C48.9761 41.6416 45.5847 42.5671 46.1368 44.7618C46.3209 45.4758 46.5049 46.1633 46.6626 46.8508Z" fill="white"/>
<path d="M68.4307 119.515C67.8786 117.32 64.4872 118.246 65.0393 120.44C65.2233 121.128 65.3811 121.815 65.5651 122.529C66.1172 124.724 69.5086 123.799 68.9565 121.604C68.7988 120.89 68.6147 120.202 68.4307 119.515Z" fill="white"/>
<path d="M94.5891 75.6466C95.2726 75.4615 95.9562 75.3028 96.666 75.1177C98.8481 74.5624 97.9279 71.1778 95.7459 71.7066C95.0623 71.8917 94.3788 72.0504 93.669 72.2355C91.4869 72.7908 92.407 76.1754 94.5891 75.6466Z" fill="white"/>
<path d="M20.5041 90.7454C19.8206 90.9305 19.137 91.0891 18.4535 91.2742C16.2714 91.8295 17.1916 95.2406 19.3736 94.6853C20.0572 94.5002 20.7407 94.3416 21.4243 94.1565C23.6326 93.5747 22.6862 90.1901 20.5041 90.7454Z" fill="white"/>
<path d="M78.4209 51.531C78.789 50.9229 79.157 50.3147 79.5251 49.7065C80.6818 47.7497 77.6585 45.9781 76.5017 47.9348C76.1337 48.543 75.7656 49.1512 75.3976 49.7594C74.2408 51.6897 77.2642 53.4613 78.4209 51.531Z" fill="white"/>
<path d="M36.6724 114.861C36.3043 115.47 35.9363 116.078 35.5682 116.712C34.4115 118.669 37.4348 120.441 38.5916 118.484C38.9596 117.876 39.3277 117.268 39.6957 116.633C40.8525 114.676 37.8291 112.905 36.6724 114.861Z" fill="white"/>
<path d="M92.6436 102.248C92.0389 101.877 91.4343 101.507 90.8033 101.137C88.8579 99.9735 87.0964 103.014 89.0419 104.178C89.6465 104.548 90.2512 104.918 90.8822 105.288C92.8013 106.452 94.5628 103.411 92.6436 102.248Z" fill="white"/>
<path d="M22.476 64.1445C23.0806 64.5146 23.6853 64.8848 24.3163 65.255C26.2617 66.4185 28.0231 63.3776 26.0777 62.2141C25.473 61.8439 24.8683 61.4738 24.2374 61.1036C22.2919 59.9136 20.5305 62.9545 22.476 64.1445Z" fill="white"/>
<path d="M62.5943 47.3531C63.4356 47.5911 64.6186 47.0623 64.75 46.1103C64.8552 45.3964 64.9604 44.7089 65.0655 43.9949C65.197 43.043 64.8552 42.0911 63.8299 41.8266C62.9886 41.5887 61.8056 42.1175 61.6741 43.0694C61.569 43.7834 61.4638 44.4709 61.3587 45.1848C61.2272 46.1368 61.5953 47.0623 62.5943 47.3531Z" fill="white"/>
<path d="M52.5252 119.012C51.6839 118.774 50.5009 119.303 50.3694 120.255C50.2643 120.969 50.1591 121.656 50.0539 122.37C49.9225 123.322 50.2643 124.274 51.2896 124.539C52.1308 124.777 53.3139 124.248 53.4453 123.296C53.5505 122.582 53.6557 121.894 53.7608 121.18C53.8923 120.228 53.5242 119.303 52.5252 119.012Z" fill="white"/>
<path d="M95.3252 87.0167C94.3788 86.8845 93.4586 87.2283 93.1695 88.2595C92.9328 89.1057 93.4586 90.2956 94.4051 90.4278C95.1149 90.5336 95.7984 90.6394 96.5083 90.7452C97.4547 90.8774 98.3749 90.5336 98.664 89.5023C98.9007 88.6562 98.3749 87.4663 97.4284 87.3341C96.7449 87.2283 96.0351 87.1225 95.3252 87.0167Z" fill="white"/>
<path d="M19.7679 79.3485C20.7144 79.4807 21.6608 79.137 21.9237 78.1057C22.1603 77.2596 21.6345 76.0697 20.6881 75.9375C19.9782 75.8317 19.2947 75.7259 18.5849 75.6201C17.6384 75.4879 16.692 75.8317 16.4291 76.8629C16.1925 77.7091 16.7183 78.899 17.6647 79.0312C18.3746 79.137 19.0581 79.2428 19.7679 79.3485Z" fill="white"/>
<path d="M86.9389 59.0409C86.1765 59.6226 85.7822 60.5481 86.308 61.4472C86.7549 62.214 87.938 62.6635 88.7004 62.0818C89.2787 61.6587 89.8308 61.2356 90.4092 60.8126C91.1716 60.2308 91.566 59.3053 91.0402 58.4063C90.5932 57.6395 89.4102 57.1899 88.6478 57.7717C88.0957 58.1948 87.5173 58.6178 86.9389 59.0409Z" fill="white"/>
<path d="M26.393 104.284C25.8146 104.707 25.2626 105.13 24.6842 105.553C23.9218 106.135 23.5274 107.06 24.0532 107.96C24.5001 108.726 25.6832 109.176 26.4456 108.594C27.024 108.171 27.5761 107.748 28.1544 107.325C28.9169 106.743 29.3112 105.818 28.7854 104.919C28.3385 104.152 27.1554 103.729 26.393 104.284Z" fill="white"/>
<path d="M81.5492 112.745C80.9709 111.979 80.0507 111.582 79.1568 112.111C78.3944 112.56 77.9475 113.75 78.5259 114.517C78.9465 115.099 79.3672 115.654 79.7878 116.236C80.3662 117.003 81.2863 117.399 82.1802 116.87C82.9426 116.421 83.3895 115.231 82.8112 114.464C82.4168 113.909 81.9962 113.327 81.5492 112.745Z" fill="white"/>
<path d="M36.5672 51.8486C36.1466 51.2668 35.726 50.7115 35.3053 50.1298C34.7269 49.363 33.8068 48.9663 32.9129 49.4952C32.1505 49.9447 31.7036 51.1346 32.282 51.9014C32.7026 52.4832 33.1233 53.0385 33.5439 53.6202C34.1223 54.387 35.0424 54.7837 35.9363 54.2548C36.6987 53.8053 37.1456 52.6154 36.5672 51.8486Z" fill="white"/>
<path d="M16.7184 52.5884C11.4867 57.0043 7.09628 66.0212 8.06901 72.9756C8.0953 73.2136 8.43707 73.1872 8.48965 72.9756C10.4088 65.7039 12.7486 59.0933 16.9287 52.7735C17.0339 52.6149 16.8498 52.4827 16.7184 52.5884Z" fill="white"/>
<path d="M17.691 51.901C18.1905 51.7688 18.506 51.3193 18.8215 50.9491C19.1895 50.526 19.7153 50.1029 19.8468 49.5741C19.8731 49.4418 19.7679 49.2567 19.6365 49.2832C19.0844 49.3361 18.7426 49.812 18.4008 50.2087C18.0591 50.6318 17.5858 51.1342 17.4807 51.6895C17.4281 51.8217 17.5596 51.9539 17.691 51.901Z" fill="white"/>
<path d="M98.3224 113.142C94.8785 116.923 91.6974 120.678 87.5699 123.745C83.3109 126.918 77.3431 129.906 72.2691 131.361C72.0325 131.44 72.1377 131.757 72.3743 131.731C82.7325 130.224 94.0109 123.084 98.7168 113.459C98.8482 113.195 98.5328 112.904 98.3224 113.142Z" fill="white"/>
<path d="M101.24 109.175C100.163 109.598 99.5054 111.053 99.1373 112.084C99.0847 112.243 99.295 112.401 99.4265 112.296C100.373 111.74 101.503 110.577 101.582 109.413C101.582 109.281 101.398 109.122 101.24 109.175Z" fill="white"/>
<path d="M75.7655 36.4852C84.8092 39.7112 91.0925 45.6079 96.9552 53.0646C97.0866 53.2233 97.3495 53.0382 97.297 52.8531C94.7205 43.3602 84.6778 37.7544 75.897 35.9563C75.5552 35.9034 75.45 36.353 75.7655 36.4852Z" fill="white"/>
</svg>
