<svg width="26" height="27" viewBox="0 0 26 27" fill="none" xmlns="http://www.w3.org/2000/svg">
<path d="M12.8547 6.23621C11.9467 6.23621 11.0591 6.50547 10.3041 7.00994C9.54908 7.51441 8.96063 8.23144 8.61315 9.07034C8.26566 9.90924 8.17474 10.8323 8.35189 11.7229C8.52904 12.6135 8.96629 13.4315 9.60836 14.0736C10.2504 14.7157 11.0685 15.1529 11.959 15.3301C12.8496 15.5072 13.7727 15.4163 14.6116 15.0688C15.4505 14.7213 16.1676 14.1329 16.672 13.3779C17.1765 12.6229 17.4458 11.7353 17.4458 10.8273C17.4458 9.60963 16.9621 8.44188 16.1011 7.5809C15.2401 6.71991 14.0723 6.23621 12.8547 6.23621ZM12.8547 13.5819C12.3099 13.5819 11.7773 13.4203 11.3243 13.1176C10.8713 12.815 10.5183 12.3847 10.3098 11.8814C10.1013 11.3781 10.0467 10.8242 10.153 10.2899C10.2593 9.75551 10.5217 9.26468 10.9069 8.87944C11.2921 8.4942 11.783 8.23185 12.3173 8.12556C12.8517 8.01927 13.4055 8.07382 13.9089 8.28231C14.4122 8.4908 14.8424 8.84387 15.1451 9.29687C15.4478 9.74986 15.6093 10.2824 15.6093 10.8273C15.6086 11.5576 15.3182 12.2578 14.8017 12.7743C14.2853 13.2907 13.5851 13.5811 12.8547 13.5819Z" fill="white"/>
<path d="M12.8549 0.726982C10.3125 0.726982 7.82709 1.48091 5.71311 2.89343C3.59913 4.30594 1.95149 6.3136 0.978527 8.66253C0.00556982 11.0115 -0.249 13.5962 0.247009 16.0898C0.743019 18.5834 1.96733 20.8739 3.76512 22.6717C5.56291 24.4695 7.85344 25.6938 10.347 26.1898C12.8407 26.6858 15.4253 26.4312 17.7743 25.4583C20.1232 24.4853 22.1309 22.8377 23.5434 20.7237C24.9559 18.6097 25.7098 16.1244 25.7098 13.5819C25.7059 10.1738 24.3503 6.90631 21.9404 4.49639C19.5305 2.08647 16.2631 0.73087 12.8549 0.726982ZM7.34567 23.1101V21.8458C7.3464 21.1154 7.63685 20.4152 8.15329 19.8988C8.66972 19.3823 9.36994 19.0919 10.1003 19.0911H15.6095C16.3399 19.0919 17.0401 19.3823 17.5565 19.8988C18.073 20.4152 18.3634 21.1154 18.3642 21.8458V23.1101C16.6923 24.0864 14.791 24.6008 12.8549 24.6008C10.9189 24.6008 9.01757 24.0864 7.34567 23.1101ZM20.1932 21.7778C20.1749 20.5734 19.6842 19.4244 18.8269 18.5784C17.9695 17.7324 16.8141 17.257 15.6095 17.2547H10.1003C8.89577 17.257 7.74035 17.7324 6.88297 18.5784C6.0256 19.4244 5.5349 20.5734 5.5166 21.7778C3.85149 20.291 2.67725 18.3335 2.14938 16.1645C1.6215 13.9955 1.76489 11.7173 2.56056 9.63163C3.35622 7.54594 4.76662 5.75111 6.60502 4.48481C8.44341 3.21851 10.6231 2.54047 12.8554 2.54047C15.0877 2.54047 17.2673 3.21851 19.1057 4.48481C20.9441 5.75111 22.3545 7.54594 23.1502 9.63163C23.9459 11.7173 24.0892 13.9955 23.5614 16.1645C23.0335 18.3335 21.8593 20.291 20.1942 21.7778H20.1932Z" fill="white"/>
</svg>
