<svg width="13" height="14" viewBox="0 0 13 14" fill="none" xmlns="http://www.w3.org/2000/svg">
<path d="M6.12101 0.000244145C6.67034 0.000208178 7.19886 0.21038 7.59815 0.587644C7.99744 0.964908 8.23723 1.48066 8.26833 2.02911L8.27164 2.15087H11.7457C11.8715 2.15091 11.9925 2.19868 12.0844 2.28452C12.1763 2.37037 12.2321 2.48789 12.2407 2.61334C12.2493 2.73879 12.2099 2.86282 12.1306 2.96036C12.0512 3.05791 11.9378 3.12169 11.8132 3.13883L11.7457 3.14347H11.219L10.372 11.7592C10.3295 12.1887 10.1358 12.5892 9.82537 12.8891C9.51494 13.189 9.10802 13.3688 8.67728 13.3963L8.56081 13.4003H3.68121C3.2494 13.4003 2.83167 13.2467 2.50267 12.9671C2.17367 12.6874 1.95483 12.2998 1.88527 11.8737L1.87005 11.7585L1.02237 3.14347H0.496298C0.376368 3.14346 0.260496 3.10003 0.170111 3.0212C0.0797258 2.94237 0.0209426 2.83348 0.0046321 2.71466L0 2.64717C5.05754e-06 2.52724 0.0434378 2.41137 0.122266 2.32098C0.201094 2.2306 0.309985 2.17181 0.428802 2.1555L0.496298 2.15087H3.97039C3.97039 1.58049 4.19697 1.03347 4.60029 0.630148C5.00361 0.226827 5.55063 0.000244145 6.12101 0.000244145ZM10.2218 3.14347H2.0196L2.85802 11.6613C2.87658 11.8513 2.96033 12.0291 3.09506 12.1644C3.22979 12.2998 3.4072 12.3843 3.59717 12.4037L3.68121 12.4077H8.56081C8.95785 12.4077 9.29467 12.1265 9.37143 11.7446L9.38467 11.6613L10.2211 3.14347H10.2218ZM7.27904 4.96323C7.39897 4.96323 7.51484 5.00666 7.60523 5.08549C7.69561 5.16432 7.7544 5.27321 7.77071 5.39203L7.77534 5.45952V10.0916C7.7753 10.2174 7.72753 10.3384 7.64169 10.4303C7.55584 10.5222 7.43832 10.5781 7.31287 10.5866C7.18742 10.5952 7.06339 10.5558 6.96584 10.4765C6.8683 10.3971 6.80451 10.2837 6.78737 10.1591L6.78274 10.0916V5.45952C6.78274 5.3279 6.83503 5.20166 6.9281 5.10859C7.02118 5.01551 7.14741 4.96323 7.27904 4.96323ZM4.96298 4.96323C5.08291 4.96323 5.19878 5.00666 5.28917 5.08549C5.37955 5.16432 5.43834 5.27321 5.45465 5.39203L5.45928 5.45952V10.0916C5.45924 10.2174 5.41147 10.3384 5.32563 10.4303C5.23978 10.5222 5.12226 10.5781 4.99681 10.5866C4.87136 10.5952 4.74733 10.5558 4.64979 10.4765C4.55224 10.3971 4.48846 10.2837 4.47132 10.1591L4.46668 10.0916V5.45952C4.46668 5.3279 4.51897 5.20166 4.61205 5.10859C4.70512 5.01551 4.83136 4.96323 4.96298 4.96323ZM6.12101 0.992841C5.83039 0.992851 5.55039 1.10214 5.3366 1.29901C5.12281 1.49588 4.99087 1.76594 4.96695 2.05558L4.96298 2.15087H7.27904C7.27904 1.84374 7.15703 1.54919 6.93986 1.33202C6.72269 1.11485 6.42814 0.992841 6.12101 0.992841Z" fill="#858585"/>
</svg>
