<svg width="14" height="12" viewBox="0 0 14 12" fill="none" xmlns="http://www.w3.org/2000/svg">
<path d="M12.9387 5.3341C13.2428 5.73184 13.2428 6.2688 12.9387 6.6659C11.9809 7.91624 9.68297 10.4907 7.00011 10.4907C4.31725 10.4907 2.01931 7.91624 1.06151 6.6659C0.913563 6.47546 0.833252 6.24116 0.833252 6C0.833252 5.75884 0.913563 5.52454 1.06151 5.3341C2.01931 4.08376 4.31725 1.50932 7.00011 1.50932C9.68297 1.50932 11.9809 4.08376 12.9387 5.3341V5.3341Z" stroke="white" stroke-width="1.12267" stroke-linecap="round" stroke-linejoin="round"/>
<path d="M6.99968 7.92466C8.06259 7.92466 8.92426 7.063 8.92426 6.00008C8.92426 4.93717 8.06259 4.07551 6.99968 4.07551C5.93677 4.07551 5.0751 4.93717 5.0751 6.00008C5.0751 7.063 5.93677 7.92466 6.99968 7.92466Z" stroke="white" stroke-width="1.12267" stroke-linecap="round" stroke-linejoin="round"/>
</svg>
