<svg width="116" height="238" viewBox="0 0 116 238" fill="none" xmlns="http://www.w3.org/2000/svg">
<g clip-path="url(#clip0_3149_15461)">
<path d="M60.8436 49.8602L44.8805 46.7904C43.8699 46.596 42.8653 47.1535 42.4953 48.1138L9.41895 133.979M60.8436 49.8602L26.447 138.065M60.8436 49.8602L66.8066 73.3807C66.9153 73.8095 66.8875 74.2616 66.7271 74.6739L32.9176 161.564M26.447 138.065L9.41895 133.979M26.447 138.065L32.9176 161.564M9.41895 133.979L15.544 157.189C15.7548 157.988 16.4096 158.593 17.2228 158.739L32.9176 161.564" stroke="white" stroke-width="1.06292" stroke-linecap="round"/>
<path d="M150.263 100.131L160.777 87.7329C161.442 86.948 161.45 85.799 160.795 85.0052L102.24 14.0256M150.263 100.131L90.3177 26.8522M150.263 100.131L126.846 93.7752C126.419 93.6593 126.039 93.4131 125.759 93.0708L66.67 20.9492M90.3177 26.8522L102.24 14.0256M90.3177 26.8522L66.67 20.9492M102.24 14.0256L79.0128 7.96311C78.2132 7.75442 77.3652 8.02797 76.8383 8.66454L66.67 20.9492" stroke="white" stroke-width="1.06292" stroke-linecap="round"/>
<path d="M10.4407 183.36L91.5864 137.945C92.5103 137.428 93.6739 137.67 94.3155 138.512L104.095 151.348M10.4407 183.36L19.6358 196.983M10.4407 183.36L0.0978814 204.692C-0.243943 205.397 -0.170256 206.233 0.28964 206.867L9.41899 219.46M104.095 151.348L19.6358 196.983M104.095 151.348L93.4943 173.211C93.3009 173.61 92.9877 173.939 92.5984 174.151L9.41899 219.46M19.6358 196.983L9.41899 219.46" stroke="white" stroke-width="1.06292" stroke-linecap="round"/>
<path d="M23.3819 201.069L105.801 156.022C106.764 155.496 107.97 155.789 108.583 156.699L117.377 169.738M23.3819 201.069L14.3301 223.052C14.0321 223.776 14.1559 224.605 14.6524 225.21L24.7441 237.509M23.3819 201.069L34.2798 214.692M24.7441 237.509L34.2798 214.692M24.7441 237.509L105.564 192.534C105.938 192.326 106.241 192.01 106.432 191.627L117.377 169.738M34.2798 214.692L117.377 169.738" stroke="white" stroke-width="1.06292" stroke-linecap="round"/>
</g>
<defs>
<clipPath id="clip0_3149_15461">
<rect width="116" height="238" fill="white"/>
</clipPath>
</defs>
</svg>
