<svg width="12" height="13" viewBox="0 0 12 13" fill="none" xmlns="http://www.w3.org/2000/svg">
<path fill-rule="evenodd" clip-rule="evenodd" d="M0.31694 5.29062C0.31694 2.36495 2.76178 0.000244141 5.71906 0.000244141C8.68468 0.000244141 11.1295 2.36495 11.1295 5.29062C11.1295 6.76491 10.5934 8.13361 9.71085 9.29371C8.73727 10.5734 7.5373 11.6883 6.18661 12.5635C5.87748 12.7657 5.59849 12.781 5.25921 12.5635C3.90083 11.6883 2.70085 10.5734 1.73561 9.29371C0.852471 8.13361 0.31694 6.76491 0.31694 5.29062ZM3.93927 5.45572C3.93927 6.43582 4.73904 7.20667 5.71967 7.20667C6.70094 7.20667 7.50841 6.43582 7.50841 5.45572C7.50841 4.48325 6.70094 3.67488 5.71967 3.67488C4.73904 3.67488 3.93927 4.48325 3.93927 5.45572Z" fill="#B5B8C6"/>
</svg>
