<svg width="123" height="34" viewBox="0 0 123 34" fill="none" xmlns="http://www.w3.org/2000/svg">
<path d="M8.85353 24.6492H6.36914V26.7657H8.85353V24.6492Z" fill="white"/>
<path d="M21.4726 24.6492H18.9882V26.7657H21.4726V24.6492Z" fill="white"/>
<path d="M12.1925 3.43333H15.6206C16.2689 3.43333 16.8907 3.67465 17.3491 4.10419C17.8076 4.53373 18.0651 5.11631 18.0651 5.72377V7.41873H9.74805V5.72377C9.74805 5.11631 10.0056 4.53373 10.464 4.10419C10.9225 3.67465 11.5442 3.43333 12.1925 3.43333Z" fill="white"/>
<path d="M8.90232 0.478656L8.50254 0.853248C8.31129 1.03244 8.31129 1.32298 8.50254 1.50218L12.5578 5.30187C12.749 5.48106 13.0591 5.48106 13.2504 5.30187L13.6502 4.92728C13.8414 4.74808 13.8414 4.45754 13.6502 4.27835L9.5949 0.478656C9.40365 0.299459 9.09357 0.299459 8.90232 0.478656Z" fill="white"/>
<path d="M19.4018 0.74822L19.0633 0.431048C18.9011 0.279033 18.638 0.279032 18.4758 0.431047L15.0382 3.65199C14.8759 3.80401 14.8759 4.05047 15.0382 4.20249L15.3767 4.51966C15.5389 4.67167 15.802 4.67167 15.9642 4.51966L19.4018 1.29872C19.564 1.1467 19.564 0.900235 19.4018 0.74822Z" fill="white"/>
<path d="M26.0422 6.1272H1.65774C1.38229 6.1272 1.11812 6.22973 0.92334 6.41223C0.728564 6.59473 0.619141 6.84226 0.619141 7.10035L0.619141 24.3334C0.619141 24.5915 0.728564 24.839 0.92334 25.0215C1.11812 25.204 1.38229 25.3066 1.65774 25.3066H26.0422C26.3176 25.3066 26.5818 25.204 26.7766 25.0215C26.9714 24.839 27.0808 24.5915 27.0808 24.3334V7.10035C27.0808 6.84226 26.9714 6.59473 26.7766 6.41223C26.5818 6.22973 26.3176 6.1272 26.0422 6.1272ZM24.8523 22.69H3.56299V8.51431H24.8523V22.69Z" fill="white"/>
<path d="M8.89603 14.5607H16.7371C16.8495 14.5607 16.9573 14.6025 17.0367 14.677C17.1162 14.7514 17.1608 14.8524 17.1608 14.9577V20.3712C17.1608 20.4765 17.1162 20.5775 17.0367 20.652C16.9573 20.7264 16.8495 20.7682 16.7371 20.7682H8.89603C8.77235 20.7682 8.65373 20.7222 8.56628 20.6403C8.47882 20.5583 8.42969 20.4472 8.42969 20.3313V14.999C8.42951 14.9415 8.44144 14.8845 8.46479 14.8314C8.48815 14.7782 8.52247 14.7299 8.56579 14.6892C8.60911 14.6484 8.66058 14.6161 8.71725 14.5941C8.77392 14.5721 8.83467 14.5607 8.89603 14.5607Z" fill="white"/>
<path d="M19.4963 15.4514V20.3184L15.7422 18.3347L16.2787 16.9865L19.4963 15.2928V15.4514Z" fill="white"/>
<path d="M14.5564 13.4948C15.2736 13.4948 15.855 12.95 15.855 12.278C15.855 11.606 15.2736 11.0613 14.5564 11.0613C13.8392 11.0613 13.2578 11.606 13.2578 12.278C13.2578 12.95 13.8392 13.4948 14.5564 13.4948Z" fill="white"/>
<path d="M10.6409 13.7165C11.2084 13.7165 11.6685 13.2854 11.6685 12.7536C11.6685 12.2219 11.2084 11.7908 10.6409 11.7908C10.0734 11.7908 9.61328 12.2219 9.61328 12.7536C9.61328 13.2854 10.0734 13.7165 10.6409 13.7165Z" fill="white"/>
<path d="M38.2868 25.007C35.9984 25.007 34.4142 24.5109 33.5341 23.5188C32.926 22.8147 32.6219 21.8305 32.6219 20.5663C32.6219 20.0223 32.6779 19.4382 32.79 18.8141L33.7741 13.2933C34.4942 9.24468 37.0946 7.22039 41.5752 7.22039C43.4315 7.22039 44.8397 7.62044 45.7999 8.42056C46.76 9.20468 47.2401 10.2848 47.2401 11.661C47.2401 12.3011 47.1441 12.9412 46.952 13.5813C46.776 14.2054 46.6 14.6695 46.4239 14.9735L46.1599 15.4536H41.9113C42.4394 14.8455 42.7034 13.9814 42.7034 12.8612C42.7034 12.2691 42.5514 11.8051 42.2473 11.469C41.9433 11.117 41.4952 10.9409 40.9031 10.9409C39.2869 10.9409 38.3268 11.8371 38.0227 13.6293L37.1826 18.478C37.1026 18.8941 37.0626 19.3021 37.0626 19.7022C37.0626 20.7584 37.6947 21.2864 38.9589 21.2864C40.4791 21.2864 41.3912 20.4303 41.6953 18.7181H46.0159L45.8959 19.4142C45.2558 23.1427 42.7194 25.007 38.2868 25.007ZM64.1256 7.38841L61.1012 24.6709H56.7565L57.8607 18.43H53.18L52.0998 24.6709H47.7552L50.8036 7.38841H55.1243L53.8281 14.6855H58.5088L59.805 7.38841H64.1256ZM76.5418 24.6709H64.492L67.5405 7.38841H79.5902L78.9181 11.133H71.189L70.6369 14.3734H77.0218L76.3497 18.118H69.9648L69.4847 20.9264H77.2139L76.5418 24.6709ZM85.3316 25.007C83.0592 25.007 81.491 24.4789 80.6269 23.4227C80.0348 22.6866 79.7387 21.6785 79.7387 20.3983C79.7387 19.8062 79.8027 19.1581 79.9308 18.454L80.7709 13.6533C81.523 9.3647 84.1474 7.22039 88.644 7.22039C90.5003 7.22039 91.9085 7.62044 92.8687 8.42056C93.8288 9.20468 94.3089 10.2848 94.3089 11.661C94.3089 12.2211 94.2288 12.7892 94.0688 13.3653C93.9248 13.9414 93.7808 14.3734 93.6368 14.6615L93.3967 15.0935H89.1481C89.5642 14.5174 89.7722 13.8534 89.7722 13.1012C89.7722 11.661 89.1721 10.9409 87.9719 10.9409C86.3557 10.9409 85.3876 11.8771 85.0675 13.7493L84.2514 18.358C84.1714 18.7901 84.1314 19.2141 84.1314 19.6302C84.1314 20.7344 84.7795 21.2864 86.0757 21.2864C87.3879 21.2864 88.228 20.6303 88.596 19.3181H86.6277L87.1078 16.6538H93.4687L93.0847 18.7181L92.9647 19.4142C92.2926 23.1427 89.7482 25.007 85.3316 25.007ZM100.92 25.007C98.6474 25.007 97.0792 24.4789 96.2151 23.4227C95.623 22.6866 95.3269 21.6785 95.3269 20.3983C95.3269 19.8062 95.391 19.1581 95.519 18.454L96.3591 13.6533C97.1112 9.3647 99.7356 7.22039 104.232 7.22039C106.089 7.22039 107.497 7.62044 108.457 8.42056C109.417 9.20468 109.897 10.2848 109.897 11.661C109.897 12.2211 109.817 12.7892 109.657 13.3653C109.513 13.9414 109.369 14.3734 109.225 14.6615L108.985 15.0935H104.736C105.152 14.5174 105.36 13.8534 105.36 13.1012C105.36 11.661 104.76 10.9409 103.56 10.9409C101.944 10.9409 100.976 11.8771 100.656 13.7493L99.8396 18.358C99.7596 18.7901 99.7196 19.2141 99.7196 19.6302C99.7196 20.7344 100.368 21.2864 101.664 21.2864C102.976 21.2864 103.816 20.6303 104.184 19.3181H102.216L102.696 16.6538H109.057L108.673 18.7181L108.553 19.4142C107.881 23.1427 105.336 25.007 100.92 25.007ZM121.429 24.6709H110.483L113.532 7.38841H117.852L115.476 20.9264H122.101L121.429 24.6709Z" fill="white"/>
</svg>
