<svg width="10" height="10" viewBox="0 0 10 10" fill="none" xmlns="http://www.w3.org/2000/svg">
<path d="M9.62773 2.05907L7.91522 0.340372C7.69171 0.129672 7.39883 0.00877464 7.09229 0.000678682C6.78575 -0.00741728 6.48694 0.0978527 6.2527 0.296464L0.627634 5.94184C0.42561 6.1463 0.29982 6.41429 0.27138 6.70083L0.00262687 9.31652C-0.00579262 9.40839 0.00608587 9.501 0.0374155 9.58774C0.0687452 9.67447 0.118754 9.75321 0.183879 9.81833C0.24228 9.87646 0.31154 9.92246 0.38769 9.95367C0.463839 9.98489 0.545379 10.0007 0.627634 10.0002H0.683885L3.29016 9.76187C3.57566 9.73333 3.84269 9.60709 4.04642 9.40433L9.67148 3.75896C9.88981 3.52748 10.0078 3.21858 9.9996 2.89994C9.9914 2.58131 9.85768 2.27894 9.62773 2.05907ZM3.17766 8.50735L1.30264 8.68298L1.47139 6.80119L5.00268 3.30106L6.6902 4.99467L3.17766 8.50735ZM7.50271 4.15414L5.82769 2.47307L7.04646 1.21854L8.75272 2.93097L7.50271 4.15414Z" fill="#5315B5"/>
</svg>
