<svg width="122" height="141" viewBox="0 0 122 141" fill="none" xmlns="http://www.w3.org/2000/svg">
<path d="M2.55509 103.134L42.7268 88.6726C44.4692 88.0454 46.1247 89.791 45.4061 91.4977L26.1237 137.293C25.4662 138.855 23.3355 139.057 22.3956 137.648L1.50636 106.314C0.740435 105.165 1.25593 103.602 2.55509 103.134Z" fill="white"/>
<path d="M118.471 53.1369L61.1735 24.9035C59.5 24.0789 59.6246 21.6524 61.3738 21.0035L112.858 1.9044C114.145 1.42702 115.54 2.27609 115.708 3.6384L121.52 50.9709C121.726 52.6485 119.987 53.884 118.471 53.1369Z" fill="white"/>
<path d="M82.4256 97.5406L85.9597 88.7053C86.0115 88.576 85.9269 88.4327 85.7887 88.4154L75.1864 87.0902C75.0038 87.0673 74.8805 87.2715 74.9855 87.4225L82.0537 97.583C82.1504 97.722 82.3628 97.6978 82.4256 97.5406Z" fill="white"/>
</svg>
