<svg width="13" height="13" viewBox="0 0 13 13" fill="none" xmlns="http://www.w3.org/2000/svg">
<path d="M11.5556 7.2221V10.8332C11.5556 11.2304 11.2306 11.5554 10.8333 11.5554H2.16667C1.76944 11.5554 1.44444 11.2304 1.44444 10.8332V7.2221C1.44444 6.82488 1.11944 6.49988 0.722222 6.49988C0.325 6.49988 0 6.82488 0 7.2221V11.5554C0 12.3499 0.65 12.9999 1.44444 12.9999H11.5556C12.35 12.9999 13 12.3499 13 11.5554V7.2221C13 6.82488 12.675 6.49988 12.2778 6.49988C11.8806 6.49988 11.5556 6.82488 11.5556 7.2221ZM7.22222 6.98377L8.58 5.62599C8.64686 5.55912 8.72624 5.50608 8.81361 5.4699C8.90097 5.43371 8.99461 5.41508 9.08917 5.41508C9.18373 5.41508 9.27736 5.43371 9.36473 5.4699C9.45209 5.50608 9.53147 5.55912 9.59833 5.62599C9.6652 5.69285 9.71824 5.77223 9.75442 5.8596C9.79061 5.94696 9.80924 6.04059 9.80924 6.13516C9.80924 6.22972 9.79061 6.32335 9.75442 6.41071C9.71824 6.49808 9.6652 6.57746 9.59833 6.64432L7.00556 9.2371C6.93874 9.30405 6.85938 9.35717 6.77201 9.39341C6.68464 9.42966 6.59098 9.44831 6.49639 9.44831C6.4018 9.44831 6.30814 9.42966 6.22077 9.39341C6.1334 9.35717 6.05404 9.30405 5.98722 9.2371L3.39444 6.64432C3.2594 6.50928 3.18354 6.32613 3.18354 6.13516C3.18354 5.94418 3.2594 5.76103 3.39444 5.62599C3.52948 5.49095 3.71264 5.41508 3.90361 5.41508C4.09459 5.41508 4.27774 5.49095 4.41278 5.62599L5.77778 6.98377V0.7221C5.77778 0.324878 6.10278 -0.00012207 6.5 -0.00012207C6.89722 -0.00012207 7.22222 0.324878 7.22222 0.7221V6.98377Z" fill="white"/>
</svg>
