<svg width="17" height="18" viewBox="0 0 17 18" fill="none" xmlns="http://www.w3.org/2000/svg">
<path fill-rule="evenodd" clip-rule="evenodd" d="M12.6939 12.0904C13.795 10.6703 14.3139 8.88402 14.1451 7.09483C13.9763 5.30564 13.1325 3.64798 11.7853 2.45908C10.4382 1.27018 8.68891 0.639359 6.89335 0.694943C5.09778 0.750528 3.39082 1.48834 2.11974 2.75829C0.847546 4.02912 0.107611 5.73742 0.0507209 7.53506C-0.00616914 9.33271 0.624267 11.0844 1.81356 12.4332C3.00285 13.782 4.66148 14.6264 6.45146 14.7942C8.24145 14.9621 10.0281 14.4409 11.4472 13.3367L11.4852 13.3765L15.2307 17.1243C15.3127 17.2064 15.4101 17.2715 15.5173 17.3159C15.6244 17.3603 15.7393 17.3832 15.8553 17.3832C15.9714 17.3832 16.0862 17.3603 16.1934 17.3159C16.3006 17.2715 16.398 17.2064 16.48 17.1243C16.5621 17.0422 16.6271 16.9448 16.6715 16.8376C16.7159 16.7304 16.7388 16.6154 16.7388 16.4994C16.7388 16.3833 16.7159 16.2684 16.6715 16.1612C16.6271 16.0539 16.5621 15.9565 16.48 15.8744L12.7337 12.1275C12.7208 12.1147 12.7075 12.1024 12.6939 12.0904ZM10.8609 4.00816C11.3595 4.49882 11.7559 5.08336 12.0275 5.72807C12.2991 6.37278 12.4403 7.0649 12.4432 7.76451C12.446 8.46411 12.3104 9.15736 12.0441 9.80426C11.7778 10.4512 11.3861 11.0389 10.8916 11.5336C10.3971 12.0283 9.80955 12.4202 9.1629 12.6866C8.51626 12.953 7.82329 13.0887 7.12396 13.0859C6.42463 13.083 5.73279 12.9417 5.08833 12.67C4.44388 12.3983 3.85957 12.0017 3.36911 11.503C2.38897 10.5063 1.84219 9.16262 1.84788 7.76451C1.85357 6.3664 2.41127 5.02718 3.39949 4.03856C4.38772 3.04994 5.72641 2.49202 7.12396 2.48632C8.52151 2.48063 9.8647 3.02763 10.8609 4.00816Z" fill="white"/>
</svg>
