<svg width="15" height="15" viewBox="0 0 15 15" fill="none" xmlns="http://www.w3.org/2000/svg">
<path opacity="0.9" d="M2.96122 9.42967C3.58496 9.42791 4.1851 9.20276 4.64205 8.79909L9.10622 11.2244C8.95664 11.7802 9.02258 12.3685 9.29196 12.8818C9.56133 13.3951 10.0161 13.799 10.5731 14.0195C11.13 14.24 11.7519 14.2624 12.3248 14.0826C12.8977 13.9028 13.3834 13.5328 13.6929 13.0404C14.0023 12.548 14.1149 11.9661 14.01 11.4012C13.9051 10.8363 13.5898 10.3262 13.1216 9.96432C12.6535 9.60244 12.064 9.41296 11.461 9.43058C10.8579 9.44819 10.2817 9.67172 9.83788 10.0602L5.37372 7.6349C5.42078 7.46538 5.44646 7.28977 5.45074 7.11416L9.83646 4.73085C10.2588 5.09616 10.8003 5.31227 11.3704 5.34292C11.9404 5.37358 12.5041 5.21692 12.9671 4.89921C13.43 4.58151 13.7639 4.1221 13.9128 3.59806C14.0617 3.07401 14.0166 2.51721 13.7849 2.02108C13.5532 1.52494 13.1492 1.11965 12.6405 0.873196C12.1318 0.626743 11.5494 0.554125 10.9911 0.667523C10.4328 0.780921 9.93245 1.07344 9.57406 1.49599C9.21567 1.91855 9.02103 2.44545 9.02278 2.98828C9.02563 3.18356 9.05345 3.37815 9.10622 3.56665L5.05281 5.76825C4.81775 5.42249 4.49213 5.14082 4.10793 4.95092C3.72374 4.76102 3.2942 4.66942 2.8615 4.68511C2.42881 4.70081 2.00786 4.82326 1.64 5.04045C1.27214 5.25763 0.970036 5.56207 0.763366 5.92385C0.556696 6.28564 0.452571 6.69232 0.461222 7.10394C0.469873 7.51556 0.591001 7.91796 0.812707 8.27161C1.03441 8.62525 1.34907 8.91798 1.72576 9.12101C2.10244 9.32405 2.52821 9.43042 2.96122 9.42967Z" fill="white"/>
</svg>
