<svg width="62" height="51" viewBox="0 0 62 51" fill="none" xmlns="http://www.w3.org/2000/svg">
<path d="M19.7404 23.3398C18.2416 22.1729 16.4537 22.751 15.7042 24.421C15.6721 24.4746 15.6507 24.5281 15.6293 24.5923C15.1047 26.4657 15.9612 28.4783 17.46 29.6452C18.9696 30.8121 20.6611 29.9878 21.3035 28.382C21.9779 26.7334 21.0679 24.3782 19.7404 23.3398ZM20.0294 27.5363C20.008 28.3392 19.4727 28.8744 18.6377 28.7031C18.3058 28.6282 17.9632 28.2107 17.7384 27.9752C17.0425 27.2365 16.732 26.0268 16.989 25.0419C17.535 23.9714 18.5734 23.9286 19.3336 24.9242C19.901 25.6735 20.0616 26.6263 20.0294 27.5363Z" fill="white"/>
<path d="M60.4979 9.34741C58.4423 5.18306 54.5132 5.42928 50.7126 5.99666C50.6912 5.99666 50.6698 5.99666 50.6484 5.99666C50.5842 5.99666 50.5199 6.01807 50.4664 6.02877C49.8669 6.12512 49.2673 6.22147 48.6785 6.30711C42.6832 7.19565 35.1462 8.24477 29.2472 6.44628H29.2365C25.2432 2.50674 19.3871 -0.0518212 13.745 0.975885C7.79253 2.05712 3.64934 6.61756 1.46532 12.0558C-2.68858 24.1742 3.69216 38.4015 12.835 46.4412C16.9033 50.0167 22.995 51.1194 28.1873 50.0274C33.187 48.9676 36.6664 44.4821 38.3152 39.9324C38.8398 38.4765 39.2252 36.9991 39.4821 35.5111C40.4564 34.1836 41.5484 32.9525 42.7153 31.775C43.0472 32.4494 43.2613 33.188 43.711 33.809C44.1285 34.387 44.728 34.6226 45.3811 34.826C46.0556 35.2649 45.6594 37.3738 45.6487 37.9733C45.5952 39.6326 44.4283 40.4248 44.0964 41.8807C43.7431 43.4009 44.2355 44.5356 45.4453 45.4563C46.623 46.3662 49.2995 47.501 50.7769 47.0942C52.1901 46.7088 52.3506 45.0923 52.4577 43.8826C52.8538 39.6754 52.9823 35.4362 53.2928 31.2183C53.4534 29.0451 53.9458 28.5206 55.3697 26.8291C56.5046 25.4803 56.0121 23.0609 55.9371 21.4337C56.3011 21.1767 56.6544 20.9198 57.0077 20.6629C60.9154 17.8153 62.8532 14.1006 60.4979 9.34741ZM26.924 48.8392C21.2392 50.0382 15.7042 47.3618 11.7644 43.5079C4.1204 36.0142 -0.761511 22.9324 2.84639 12.4412C5.11605 6.77814 9.58042 2.60309 15.8327 2.20699C21.5497 1.84301 26.7206 5.4828 30.2536 9.64716C37.0197 17.6226 40.1673 28.5206 37.2017 38.712C35.7457 43.7435 32.1378 47.7365 26.924 48.8392ZM39.7819 32.8562C40.4028 24.0243 36.7735 14.9784 30.9923 8.3197C34.9 9.01554 39.1502 8.60875 42.9937 8.33041C45.4239 8.15912 47.8542 7.88079 50.263 7.48469C50.4129 7.46328 50.5628 7.43116 50.7233 7.40975C53.0037 7.292 54.6845 9.37952 55.6374 11.2101C57.072 13.9507 56.9007 16.9803 55.8301 19.7958C54.6845 20.6094 53.5176 21.3908 52.4042 22.1937C47.9719 25.3839 43.3791 28.6918 39.7819 32.8562ZM43.7645 30.7473C44.9421 29.6446 46.1733 28.5955 47.458 27.5892C47.458 28.5313 47.4366 29.4626 47.3831 30.394C47.2867 31.9141 47.0405 32.5993 45.7665 33.4236C45.7558 33.4343 45.7558 33.4343 45.7451 33.445C45.1991 33.263 44.8886 33.0917 44.5888 32.5136C44.2677 31.9355 44.0857 31.3146 43.7645 30.7473ZM52.8538 27.2573C52.1901 27.8461 52.0295 28.7025 51.9545 29.5376C51.6762 32.8241 51.4835 36.1106 51.2693 39.3971C51.173 40.8851 51.0766 42.3839 50.991 43.8719C50.8625 46.0023 49.4493 45.6169 47.9612 45.0923C46.2911 44.5035 44.7708 43.3367 45.9699 41.3455C46.1412 41.217 46.3232 41.0992 46.5266 41.0029C46.9227 40.8102 47.4152 40.7353 47.8434 40.7246C48.2182 40.7139 48.5929 40.853 48.9676 40.7781C49.0425 40.7567 49.0746 40.6817 49.0639 40.6068C48.9033 39.6326 47.5651 39.6112 46.6979 39.7932C47.2974 38.0911 47.6507 35.7359 46.8799 34.387C47.8542 33.7126 48.3787 33.1024 48.625 31.7857C48.9569 30.0514 48.8712 28.2315 48.8712 26.4758C50.7233 25.0842 52.629 23.746 54.5025 22.4185C54.5668 24.2706 54.4597 25.8335 52.8538 27.2573ZM58.2603 17.9437C58.0997 18.0829 57.9391 18.2007 57.7679 18.3291C58.3995 15.4922 58.0355 12.7089 56.6116 10.0004C56.0335 8.88708 55.0914 7.78444 53.9672 7.01366C55.4447 6.98154 56.8578 7.3027 58.164 8.54451C60.6478 10.8997 60.9689 15.6314 58.2603 17.9437Z" fill="white"/>
<path d="M14.73 4.57249C9.59115 5.39679 6.22949 9.71102 4.35595 14.2929C1.0157 24.2167 5.95113 35.7034 13.2098 42.5334C20.008 48.9244 30.821 48.6461 34.4825 39.0435C38.1225 29.5265 34.8893 16.6801 27.7163 9.57185C24.5366 6.39238 19.3121 3.84453 14.73 4.57249ZM26.1425 29.869C23.1235 30.779 19.2372 32.6524 16.4965 30.3294C14.0234 28.2418 13.6273 24.4629 15.8969 22.1505C17.3637 20.6518 19.719 19.956 21.5604 19.046C24.4082 17.6543 27.3202 16.3697 30.1144 14.8924C32.352 18.5215 33.8401 22.8678 34.3433 27.257C31.624 28.1883 28.8833 29.0447 26.1425 29.869ZM29.3329 13.7041C29.0224 13.8754 28.7013 14.0359 28.3908 14.1965C25.1576 9.50762 18.2094 5.31115 12.546 7.91253C12.4389 7.96606 12.5139 8.12664 12.6209 8.09452C14.7193 7.48432 17.4172 8.13734 19.4299 8.76895C22.7273 9.80736 25.3717 11.9591 27.4272 14.6783C27.1596 14.8067 26.9027 14.9459 26.635 15.0744C23.7658 11.381 19.0766 8.6512 14.3339 9.42198C14.2161 9.44339 14.2482 9.61467 14.366 9.61467C18.6912 9.78595 22.8558 12.4087 25.6608 15.5454C25.3289 15.706 25.0077 15.8558 24.6758 16.0164C23.0485 13.8647 20.5112 11.9805 17.7384 12.0341C17.642 12.0341 17.5992 12.1732 17.6848 12.2161C19.901 13.5007 21.9565 14.5926 23.6695 16.4875C23.2948 16.6587 22.92 16.8407 22.5346 17.012C22.2884 16.541 21.7424 16.0914 21.4426 15.813C20.8752 15.2671 20.0616 14.6783 19.2372 14.6354C19.2051 14.6354 19.1837 14.6783 19.1944 14.6997C19.5477 15.3527 20.3292 15.8665 20.8324 16.4125C21.0786 16.6801 21.3249 17.1191 21.6246 17.4402C20.2543 18.0825 18.8732 18.7249 17.5243 19.3993C13.1134 21.5725 11.7645 25.7261 14.3553 29.9975C16.368 33.3161 19.5477 33.1663 22.813 32.3098C24.1191 31.9673 25.4252 31.5926 26.7207 31.2072C26.7314 31.5605 26.7956 31.9352 26.7956 32.1921C26.7849 32.7809 26.7099 33.4446 26.8063 34.0227C26.817 34.0762 26.8919 34.0976 26.9348 34.0548C27.3095 33.6266 27.8555 31.8388 27.5343 30.961C27.802 30.8753 28.0696 30.8004 28.3372 30.7148C28.2944 32.3848 27.9411 34.0227 27.7377 35.682C27.727 35.7248 27.802 35.7462 27.8341 35.7248C29.2473 34.2796 29.5149 32.3206 29.4721 30.3722C29.8254 30.2651 30.168 30.1474 30.5106 30.0403C30.3821 32.4276 29.6755 34.7292 28.637 36.8917C27.6842 38.8722 26.271 41.3665 24.3225 42.512C24.2476 42.5548 24.3011 42.7047 24.3868 42.6618C29.1723 40.6814 31.5169 34.6008 31.6454 29.6763C31.988 29.5586 32.3306 29.4515 32.6732 29.3338C32.3413 35.8426 29.3008 43.9786 21.6996 44.3854C21.6032 44.3854 21.6032 44.5353 21.6996 44.5353C23.5945 44.6423 25.1041 44.6316 26.8491 43.7645C28.3372 43.0258 29.4828 41.784 30.4249 40.4459C32.6839 37.2129 33.9793 32.92 33.7652 28.9698C34.0114 28.8842 34.2576 28.8092 34.4932 28.7236C34.6859 31.8281 34.3861 34.9112 33.4868 37.7481C32.0415 42.3086 28.2516 45.5523 23.4232 45.6807C18.8518 45.7985 15.2011 42.6618 12.2676 39.5466C6.4329 33.359 2.96418 22.9641 5.75843 14.689C7.6962 9.85019 11.3576 5.8143 16.8819 5.93206C21.6246 6.03911 26.1854 9.41127 28.9047 13.0725C29.0438 13.2866 29.183 13.5007 29.3329 13.7041Z" fill="white"/>
<path d="M18.5524 14.5287C18.7452 14.5715 18.8631 14.3894 18.7881 14.218C18.6917 13.9931 18.4239 13.8217 18.2096 13.7467C18.0917 13.7038 17.8025 13.661 17.7918 13.8645C17.7811 14.1537 18.306 14.4751 18.5524 14.5287Z" fill="white"/>
<path d="M11.7323 8.35141C11.379 8.44776 11.1114 8.54411 10.8223 8.76892C10.5761 8.96161 10.3191 9.25065 10.2763 9.57181C10.2656 9.63604 10.3299 9.68957 10.3941 9.65745C10.9401 9.38982 11.3469 8.85456 11.818 8.47987C11.8715 8.43705 11.8073 8.3407 11.7323 8.35141Z" fill="white"/>
<path d="M26.6028 38.1549C26.9668 37.9622 27.1488 37.7053 27.3308 37.352C27.5235 36.9987 27.5663 36.6883 27.5878 36.2922C27.5878 36.228 27.5128 36.2172 27.4807 36.2601C27.0739 36.8167 26.5065 37.3306 26.485 38.08C26.4743 38.1549 26.5493 38.187 26.6028 38.1549Z" fill="white"/>
<path d="M19.9117 44.3753C20.2543 44.4931 20.629 44.6323 20.9716 44.4396C21.0144 44.4182 21.0251 44.3646 21.0037 44.3218C20.8645 44.0435 20.5968 43.9578 20.3185 43.8615C19.9545 43.7437 19.5798 43.551 19.1837 43.5831C19.0766 43.5939 19.0017 43.7009 19.0552 43.7973C19.2265 44.1184 19.5798 44.2683 19.9117 44.3753Z" fill="white"/>
<path d="M53.6888 20.0102C51.9437 20.4706 50.2843 21.6589 48.7748 22.6116C46.4195 24.089 44.4496 26.0587 42.576 28.0713C42.5011 28.1463 42.6082 28.2533 42.6938 28.1891C44.7172 26.4548 46.8584 24.6135 49.1174 23.1897C50.6804 22.2048 52.2756 21.2949 53.7959 20.2565C53.9029 20.1708 53.8387 19.9674 53.6888 20.0102Z" fill="white"/>
<path d="M55.2205 19.699C55.4133 19.5383 55.199 19.2812 55.0062 19.3241C54.6741 19.3884 54.417 19.5919 54.2027 19.8383C54.1492 19.8918 54.192 19.9668 54.2563 19.9668C54.6098 19.999 54.9419 19.924 55.2205 19.699Z" fill="white"/>
</svg>
